#N canvas 764 -49 1920 989 12;
#X obj 25 22 tgl 20 0 empty empty Start/Stop\ DSP 26 10 0 12 #fcfcfc #000000 #000000 0 1;
#X msg 25 54 \; pd dsp \$1;
#X obj 19 147 hsl 180 18 0 1 0 0 empty empty Death_Vol -2 -8 0 10 #fcfcfc #000000 #000000 0 1;
#X floatatom 273 178 5 0 1 0 - - - 0;
#X obj 28 183 hsl 180 18 0 1 0 0 empty empty Jump_Vol -2 -8 0 10 #fcfcfc #000000 #000000 0 1;
#X floatatom 272 207 5 0 1 0 - - - 0;
#X obj 39 218 hsl 180 18 0 5 0 0 empty empty Step_Vol -2 -8 0 10 #fcfcfc #000000 #000000 0 1;
#X floatatom 272 231 5 0 1 0 - - - 0;
#X obj 76 417 hsl 180 18 0 1 0 0 empty empty Master_Vol -2 -8 0 10 #fcfcfc #000000 #000000 0 1;
#X floatatom 269 374 5 0 1 0 - - - 0;
#X obj 311 372 s master_gain;
#X obj 16 458 loadbang;
#X msg 135 515 0.35;
#X obj 510 125 catch~ mix;
#X obj 510 155 hip~ 5;
#X obj 510 185 *~;
#X obj 510 215 clip~ -0.95 0.95;
#X obj 510 245 dac~;
#X obj 621 124 r master_gain;
#X obj 621 157 pack f 20;
#X obj 621 185 line~;
#N canvas 2130 174 1294 275 oscReceive 1;
#X obj 34 31 netreceive -u -b;
#X obj 34 65 oscparse;
#X obj 34 95 list trim;
#X obj 34 125 route unity;
#X obj 217 31 loadbang;
#X msg 217 61 listen 8000;
#X msg 312 61 listen 0;
#X obj 34 194 s deathtrig;
#X obj 148 194 s steptrig;
#X obj 261 194 s jumptrig;
#X obj 353 194 s coincount;
#X obj 446 193 s cointrig;
#X obj 533 193 s oscmusicon;
#X obj 631 193 s oscmusicoff;
#X obj 733 193 s cyclechange;
#X obj 836 193 s birdtrig;
#X obj 920 193 s waterfalldistance;
#X obj 34 155 route deathtrig steptrig jumptrig coincount cointrig oscmusicon oscmusicoff cyclechange birdtrig waterfalldistance, f 128;
#X connect 0 0 1 0;
#X connect 1 0 2 0;
#X connect 2 0 3 0;
#X connect 3 0 17 0;
#X connect 4 0 5 0;
#X connect 5 0 0 0;
#X connect 17 0 7 0;
#X connect 17 1 8 0;
#X connect 17 2 9 0;
#X connect 17 3 10 0;
#X connect 17 4 11 0;
#X connect 17 5 12 0;
#X connect 17 6 13 0;
#X connect 17 7 14 0;
#X connect 17 8 15 0;
#X connect 17 9 16 0;
#X restore 508 59 pd oscReceive;
#N canvas 1090 134 662 711 death_voice 1;
#X obj 40 22 r deathtrig;
#X obj 40 59 t b b b;
#X obj 259 112 delay 700;
#X obj 259 148 t b b;
#X obj 358 172 max 0;
#X msg 259 182 1;
#X obj 264 293 t f f f;
#X obj 264 341 sel 0;
#X msg 264 377 0;
#X obj 382 339 - 1;
#X obj 320 411 mtof;
#X obj 320 443 sig~;
#X obj 319 478 osc~;
#X obj 318 515 *~;
#X obj 383 477 vline~;
#X obj 319 594 throw~ mix;
#X msg 384 441 0 \, 0.25 5 \, 0 60 5;
#X msg 40 112 0.5 \, 0 800;
#X msg 144 112 1600 \, 40 800;
#X obj 40 150 vline~;
#X obj 144 150 line~;
#X obj 182 185 osc~ 10;
#X obj 182 224 *~ 40;
#X obj 144 261 +~;
#X obj 143 345 osc~;
#X obj 184 287 noise~;
#X obj 184 320 *~ 0.05;
#X obj 144 381 +~;
#X obj 143 420 *~;
#X obj 143 500 throw~ mix;
#X obj 299 255 f;
#X obj 358 111 r coincount;
#X obj 340 216 f;
#X text 371 216 Coin storage;
#X obj 320 377 + 70;
#X obj 320 340 * 3;
#X obj 259 217 metro 70;
#X obj 318 554 *~;
#X obj 543 471 pack f 20;
#X obj 543 500 line~;
#X obj 543 442 r death_vol;
#X obj 143 462 *~;
#X connect 0 0 1 0;
#X connect 1 0 17 0;
#X connect 1 1 18 0;
#X connect 1 2 2 0;
#X connect 2 0 3 0;
#X connect 3 0 5 0;
#X connect 3 1 32 0;
#X connect 4 0 32 1;
#X connect 5 0 36 0;
#X connect 6 0 7 0;
#X connect 6 0 16 0;
#X connect 6 1 35 0;
#X connect 6 2 9 0;
#X connect 7 0 8 0;
#X connect 8 0 36 0;
#X connect 9 0 30 1;
#X connect 10 0 11 0;
#X connect 11 0 12 0;
#X connect 12 0 13 0;
#X connect 13 0 37 0;
#X connect 14 0 13 1;
#X connect 16 0 14 0;
#X connect 17 0 19 0;
#X connect 18 0 20 0;
#X connect 19 0 28 1;
#X connect 20 0 23 0;
#X connect 21 0 22 0;
#X connect 22 0 23 1;
#X connect 23 0 24 0;
#X connect 24 0 27 0;
#X connect 25 0 26 0;
#X connect 26 0 27 1;
#X connect 27 0 28 0;
#X connect 28 0 41 0;
#X connect 30 0 6 0;
#X connect 31 0 4 0;
#X connect 32 0 30 1;
#X connect 34 0 10 0;
#X connect 35 0 34 0;
#X connect 36 0 30 0;
#X connect 37 0 15 0;
#X connect 38 0 39 0;
#X connect 39 0 37 1;
#X connect 39 0 41 1;
#X connect 40 0 38 0;
#X connect 41 0 29 0;
#X restore 625 361 pd death_voice;
#X obj 510 359 bng 18 250 50 0 empty empty Death 24 9 0 10 #fcfcfc #000000 #000000;
#X obj 510 398 s deathtrig;
#X obj 624 430 s coincount;
#X obj 624 398 random 10;
#X obj 511 490 bng 18 250 50 0 empty empty Jump 24 9 0 10 #fcfcfc #000000 #000000;
#X obj 511 529 s jumptrig;
#N canvas 400 197 988 711 jump_voice 0;
#X obj 40 22 r jumptrig;
#X obj 40 529 vline~;
#X obj 82 314 line~;
#X obj 81 350 +~;
#X obj 202 276 osc~ 12;
#X obj 201 314 *~ 15;
#X msg 40 488 0 \, 0.35 8 \, 0 120 8;
#X obj 81 397 osc~;
#X obj 81 442 +~;
#X obj 178 366 noise~;
#X obj 178 401 *~ 0.01;
#X obj 81 580 *~;
#X obj 82 649 throw~ mix;
#X obj 82 224 pack f f;
#X msg 82 262 \$1 \, \$2 110;
#X obj 40 66 t b b;
#X obj 82 158 t f f;
#X obj 132 185 + 1000;
#X obj 82 185 + 500;
#X obj 82 99 random 201;
#X obj 82 129 - 100;
#X obj 81 618 *~;
#X obj 203 518 pack f 20;
#X obj 203 547 line~;
#X obj 203 489 r jump_vol;
#X connect 0 0 15 0;
#X connect 1 0 11 1;
#X connect 2 0 3 0;
#X connect 3 0 7 0;
#X connect 4 0 5 0;
#X connect 5 0 3 1;
#X connect 6 0 1 0;
#X connect 7 0 8 0;
#X connect 8 0 11 0;
#X connect 9 0 10 0;
#X connect 10 0 8 1;
#X connect 11 0 21 0;
#X connect 13 0 14 0;
#X connect 14 0 2 0;
#X connect 15 0 6 0;
#X connect 15 1 19 0;
#X connect 16 0 18 0;
#X connect 16 1 17 0;
#X connect 17 0 13 1;
#X connect 18 0 13 0;
#X connect 19 0 20 0;
#X connect 20 0 16 0;
#X connect 21 0 12 0;
#X connect 22 0 23 0;
#X connect 23 0 21 1;
#X connect 24 0 22 0;
#X restore 606 489 pd jump_voice;
#X obj 783 359 bng 18 250 50 0 empty empty Step 24 9 0 10 #fcfcfc #000000 #000000;
#N canvas 797 142 988 711 step_voice 0;
#X obj 40 66 t b b;
#X obj 40 22 r steptrig;
#X obj 82 253 vline~;
#X obj 65 334 *~;
#X obj 15 221 noise~;
#X obj 14 253 hip~ 250;
#X obj 15 289 lop~ 1200;
#X obj 289 139 vline~;
#X obj 240 222 *~;
#X obj 133 380 +~;
#X obj 134 466 throw~ mix;
#X obj 133 424 *~;
#X msg 82 221 0 \, 0.15 2 \, 0 45 2;
#X msg 289 106 0 \, 0.06 2 \, 0 35 2;
#X obj 203 172 osc~;
#X obj 203 139 + 100;
#X obj 203 106 random 500;
#X obj 226 345 pack f 20;
#X obj 226 374 line~;
#X obj 226 316 r step_vol;
#X connect 0 0 12 0;
#X connect 0 1 13 0;
#X connect 0 1 16 0;
#X connect 1 0 0 0;
#X connect 2 0 3 1;
#X connect 3 0 9 0;
#X connect 4 0 5 0;
#X connect 5 0 6 0;
#X connect 6 0 3 0;
#X connect 7 0 8 1;
#X connect 8 0 9 1;
#X connect 9 0 11 0;
#X connect 11 0 10 0;
#X connect 12 0 2 0;
#X connect 13 0 7 0;
#X connect 14 0 8 0;
#X connect 15 0 14 0;
#X connect 16 0 15 0;
#X connect 17 0 18 0;
#X connect 18 0 11 1;
#X connect 19 0 17 0;
#X restore 875 358 pd step_voice;
#X obj 783 398 s steptrig;
#X obj 314 176 s death_vol;
#X msg 16 516 0.85;
#X obj 314 202 s jump_vol;
#X msg 59 516 0.8;
#X obj 314 227 s step_vol;
#X msg 96 515 1.5;
#X msg 418 515 0.5;
#X obj 781 491 bng 18 250 50 0 empty empty Coin\ Pickup 24 9 0 10 #fcfcfc #000000 #000000;
#X obj 895 562 s coincount;
#X obj 58 250 hsl 180 18 0 1 0 0 empty empty Coin_Vol -2 -8 0 10 #fcfcfc #000000 #000000 0 1;
#X floatatom 271 256 5 0 1 0 - - - 0;
#X obj 315 255 s coin_vol;
#X msg 186 515 0.75;
#X obj 781 530 s cointrig;
#N canvas 493 168 988 711 coin_voice 0;
#X obj 39 18 r cointrig;
#X obj 93 360 line~;
#X obj 94 395 osc~;
#X msg 39 438 0 \, 0.25 2 \, 0 70 2;
#X obj 39 482 vline~;
#X obj 42 601 *~;
#X obj 42 687 throw~ mix;
#X obj 43 559 +~;
#X obj 42 653 *~;
#X obj 181 588 pack f 20;
#X obj 181 617 line~;
#X obj 181 559 r coin_vol;
#X obj 215 391 osc~;
#X obj 216 354 line~;
#X obj 182 149 delay 40;
#X obj 291 72 max 0;
#X obj 291 35 r coincount;
#X obj 273 116 f;
#X obj 93 258 + 1200;
#X obj 147 258 + 2200;
#X obj 93 296 pack f f;
#X msg 93 326 \$1 \, \$2 50;
#X obj 92 222 t f f;
#X obj 216 222 t f f;
#X msg 218 322 \$1 \, \$2 100;
#X obj 217 258 + 1500;
#X obj 271 258 + 4000;
#X obj 217 287 pack f f;
#X obj 274 177 t f f;
#X obj 39 62 t b b b b;
#X obj 273 148 * 200;
#X connect 0 0 29 0;
#X connect 1 0 2 0;
#X connect 2 0 7 0;
#X connect 3 0 4 0;
#X connect 4 0 5 1;
#X connect 5 0 8 0;
#X connect 7 0 5 0;
#X connect 8 0 6 0;
#X connect 9 0 10 0;
#X connect 10 0 8 1;
#X connect 11 0 9 0;
#X connect 12 0 7 1;
#X connect 13 0 12 0;
#X connect 14 0 23 0;
#X connect 15 0 17 1;
#X connect 16 0 15 0;
#X connect 17 0 30 0;
#X connect 18 0 20 0;
#X connect 19 0 20 1;
#X connect 20 0 21 0;
#X connect 21 0 1 0;
#X connect 22 0 18 0;
#X connect 22 1 19 0;
#X connect 23 0 25 0;
#X connect 23 1 26 0;
#X connect 24 0 13 0;
#X connect 25 0 27 0;
#X connect 26 0 27 1;
#X connect 27 0 24 0;
#X connect 28 0 22 0;
#X connect 28 1 23 0;
#X connect 29 0 3 0;
#X connect 29 1 22 0;
#X connect 29 2 14 0;
#X connect 29 3 17 0;
#X connect 30 0 28 0;
#X restore 896 493 pd coin_voice;
#X msg 15 642 \; waveform sinesum 2051 1 0 0.333333 0 0.2 0 0.142857 0 0.111111 0 0.090909 0 0.076923 \; waveform normalize 1;
#N canvas 0 50 450 250 (subpatch) 0;
#X array waveform 2051 float 0;
#A color 0;
#A width 1;
#X coords 0 1 2050 -1 200 100 1 0 0;
#X restore 566 741 graph;
#X obj 233 806 bng 25 250 50 0 empty empty start 17 7 0 10 #00cc00 #000000 #000000;
#X obj 366 806 bng 25 250 50 0 empty empty stop 17 7 0 10 #cc0000 #000000 #000000;
#X msg 293 864 1;
#X msg 353 864 0;
#X obj 231 969 t b b;
#X obj 97 1045 random 5;
#X obj 98 1077 moses 1;
#X obj 106 1109 t b;
#X obj 106 1141 random 8;
#X obj 106 1173 tabread mscale;
#X obj 380 1072 random 4;
#X obj 373 1108 tabread bscale;
#N canvas 78 78 450 250 (subpatch) 0;
#X array mscale 8 float 3;
#A 0 60 62 64 67 69 72 74 76;
#A color 0;
#A width 2;
#X coords 0 127 8 0 200 100 1 0 0;
#X restore 566 893 graph;
#N canvas 52 52 450 250 (subpatch) 0;
#X array bscale 4 float 3;
#A 0 36 43 45 48;
#A color 0;
#A width 2;
#X coords 0 127 4 0 200 100 1 0 0;
#X restore 566 1023 graph;
#X obj 105 1236 mtof;
#X obj 23 1268 phasor~;
#X obj 105 1296 *~ 2051;
#X obj 26 1329 tabread4~ waveform;
#X obj 215 1236 t b;
#X msg 203 1271 1 5;
#X obj 270 1263 del 180;
#X msg 249 1294 0 20;
#X obj 215 1326 line~;
#X obj 67 1376 *~;
#X obj 56 1429 *~;
#X obj 416 1159 mtof;
#X obj 391 1195 phasor~;
#X obj 428 1226 *~ 2051;
#X obj 389 1259 tabread4~ waveform;
#X obj 533 1168 t b;
#X msg 508 1210 1 5;
#X obj 563 1209 del 180;
#X msg 581 1242 0 20;
#X obj 539 1275 line~;
#X obj 444 1298 *~;
#X obj 363 1340 *~;
#X obj 221 1446 +~;
#X obj 313 1432 *~ 0.4;
#X obj 415 1459 dac~;
#X text 22 1210 VOICE 1 (melody - random + rests);
#X text 110 1063 rest if 0;
#X text 492 1138 VOICE 2;
#X obj 176 763 r oscmusicon;
#X obj 58 890 tgl 25 0 empty empty empty 17 7 0 10 #fcfcfc #000000 #000000 0 1;
#X obj 58 835 bng 25 250 50 0 empty empty cycle_flip 17 7 0 10 #fcdc00 #000000 #000000;
#X obj 375 1001 == 0;
#X obj 360 1039 spigot;
#X obj 105 1013 spigot;
#X text 12 621 SHARED WAVEFORM TABLE;
#X obj 403 766 r oscmusicoff;
#X obj 20 793 r cyclechange;
#X obj 895 530 random 10;
#X obj 1071 359 bng 18 250 50 0 empty empty Bird\ Chirp 24 9 0 10 #fcfcfc #000000 #000000;
#N canvas 501 136 988 711 bird_voice 0;
#X obj 40 22 r birdtrig;
#X obj 40 58 t b b;
#X obj 147 113 random 1401;
#X obj 147 185 t f f;
#X obj 179 225 + 500;
#X obj 147 263 pack f f;
#X msg 147 312 \$1 \, \$2 60;
#X obj 147 355 line~;
#X obj 146 396 osc~;
#X obj 39 485 vline~;
#X obj 39 528 *~;
#X obj 39 613 throw~ mix;
#X msg 39 444 0 \, 0.18 3 \, 0 70 3;
#X obj 39 568 *~;
#X obj 127 512 pack f 20;
#X obj 127 541 line~;
#X obj 127 483 r bird_vol;
#X obj 147 145 + 2000;
#X connect 0 0 1 0;
#X connect 1 0 12 0;
#X connect 1 1 2 0;
#X connect 2 0 17 0;
#X connect 3 0 5 0;
#X connect 3 1 4 0;
#X connect 4 0 5 1;
#X connect 5 0 6 0;
#X connect 6 0 7 0;
#X connect 7 0 8 0;
#X connect 8 0 10 1;
#X connect 9 0 10 0;
#X connect 10 0 13 0;
#X connect 12 0 9 0;
#X connect 13 0 11 0;
#X connect 14 0 15 0;
#X connect 15 0 13 1;
#X connect 16 0 14 0;
#X connect 17 0 3 0;
#X restore 1166 358 pd bird_voice;
#X obj 1071 398 s birdtrig;
#X obj 76 284 hsl 180 18 0 1 0 0 empty empty Birds_Vol -2 -8 0 10 #fcfcfc #000000 #000000 0 1;
#X floatatom 272 279 5 0 1 0 - - - 0;
#X obj 316 278 s bird_vol;
#X obj 76 317 hsl 180 18 0 2 0 0 empty empty Waterfall_Max_Vol -2 -8 0 10 #fcfcfc #000000 #000000 0 1;
#X floatatom 271 303 5 0 1 0 - - - 0;
#X obj 77 352 hsl 180 18 0 1 0 0 empty empty Music_Vol_Day -2 -8 0 10 #fcfcfc #000000 #000000 0 1;
#X floatatom 271 327 5 0 1 0 - - - 0;
#N canvas 254 118 808 711 waterfall_voice 0;
#X obj 26 475 throw~ mix;
#X obj 26 430 *~;
#X obj 210 383 pack f 20;
#X obj 210 412 line~;
#X obj 210 354 r waterfall_vol;
#X obj 27 24 noise~;
#X obj 27 64 hip~ 300;
#X obj 26 104 lop~ 4000;
#X obj 126 26 noise~;
#X obj 126 105 lop~ 200;
#X obj 26 149 *~ 0.2;
#X obj 127 149 *~ 0.08;
#X obj 221 27 noise~;
#X obj 222 59 hip~ 2000;
#X obj 221 99 lop~ 8000;
#X obj 222 142 *~;
#X obj 339 110 +~ 0.2;
#X obj 26 235 +~;
#X obj 26 285 +~;
#X obj 26 346 *~;
#X obj 340 26 osc~ 1;
#X obj 339 66 *~ 0.05;
#X obj 26 389 *~;
#X obj 212 234 r waterfalldistance;
#X obj 212 273 pack f 20;
#X obj 212 314 line~;
#X connect 1 0 0 0;
#X connect 2 0 3 0;
#X connect 3 0 1 1;
#X connect 4 0 2 0;
#X connect 5 0 6 0;
#X connect 6 0 7 0;
#X connect 7 0 10 0;
#X connect 8 0 9 0;
#X connect 9 0 11 0;
#X connect 10 0 17 0;
#X connect 11 0 17 1;
#X connect 12 0 13 0;
#X connect 13 0 14 0;
#X connect 14 0 15 0;
#X connect 15 0 18 1;
#X connect 16 0 19 1;
#X connect 17 0 18 0;
#X connect 18 0 19 0;
#X connect 19 0 22 0;
#X connect 20 0 21 0;
#X connect 21 0 16 0;
#X connect 22 0 1 0;
#X connect 23 0 24 0;
#X connect 24 0 25 0;
#X connect 25 0 22 1;
#X restore 1255 496 pd waterfall_voice;
#X obj 1065 528 s waterfalldistance;
#X obj 1068 495 hsl 162 19 0 3 0 0 empty empty Distance\ From\ Waterfall -2 -10 0 12 #fcfcfc #000000 #000000 0 1;
#X obj 315 302 s waterfall_vol;
#X obj 77 384 hsl 180 18 0 1 0 0 empty empty Music_Vol_Night -2 -8 0 10 #fcfcfc #000000 #000000 0 1;
#X floatatom 271 350 5 0 1 0 - - - 0;
#X obj 315 326 s music_vol_day;
#X obj 315 349 s music_vol_night;
#X obj 502 1344 pack f 20;
#X obj 502 1373 line~;
#X obj 166 1392 pack f 20;
#X obj 166 1421 line~;
#X obj 166 1363 r music_vol_day;
#X obj 502 1315 r music_vol_night;
#X obj 293 902 metro 400;
#X msg 239 515 1;
#X msg 286 515 1.5;
#X msg 323 515 0.04;
#X msg 369 515 0.12;
#X obj 16 551 s cyclechange;
#X text 128 731 Day/Night Generative Music;
#X text 20 112 Sound volume controls:;
#X text 104 61 Please make sure that DPS is checked on.;
#X text 619 59 OSC Message Receiver;
#X text 682 186 Master Volume Settings;
#X text 852 283 Game Sound Effects;
#X text 511 320 Manual test controls if Unity is closed:;
#X connect 0 0 1 0;
#X connect 2 0 3 0;
#X connect 2 0 33 0;
#X connect 4 0 5 0;
#X connect 4 0 35 0;
#X connect 6 0 7 0;
#X connect 6 0 37 0;
#X connect 8 0 10 0;
#X connect 8 0 9 0;
#X connect 11 0 34 0;
#X connect 11 0 36 0;
#X connect 11 0 38 0;
#X connect 11 0 12 0;
#X connect 11 0 39 0;
#X connect 11 0 48 0;
#X connect 11 0 45 0;
#X connect 11 0 127 0;
#X connect 11 0 128 0;
#X connect 11 0 129 0;
#X connect 11 0 130 0;
#X connect 11 0 131 0;
#X connect 13 0 14 0;
#X connect 14 0 15 0;
#X connect 15 0 16 0;
#X connect 16 0 17 0;
#X connect 16 0 17 1;
#X connect 18 0 19 0;
#X connect 19 0 20 0;
#X connect 20 0 15 1;
#X connect 23 0 24 0;
#X connect 23 0 26 0;
#X connect 26 0 25 0;
#X connect 27 0 28 0;
#X connect 30 0 32 0;
#X connect 34 0 2 0;
#X connect 36 0 4 0;
#X connect 38 0 6 0;
#X connect 39 0 8 0;
#X connect 40 0 46 0;
#X connect 40 0 101 0;
#X connect 42 0 43 0;
#X connect 42 0 44 0;
#X connect 45 0 42 0;
#X connect 50 0 52 0;
#X connect 51 0 53 0;
#X connect 52 0 126 0;
#X connect 53 0 126 0;
#X connect 54 0 97 0;
#X connect 54 1 96 0;
#X connect 55 0 56 0;
#X connect 56 1 57 0;
#X connect 57 0 58 0;
#X connect 58 0 59 0;
#X connect 59 0 64 0;
#X connect 59 0 68 0;
#X connect 60 0 61 0;
#X connect 61 0 75 0;
#X connect 61 0 79 0;
#X connect 64 0 65 0;
#X connect 65 0 66 0;
#X connect 66 0 67 0;
#X connect 67 0 73 0;
#X connect 68 0 69 0;
#X connect 68 0 70 0;
#X connect 69 0 72 0;
#X connect 70 0 71 0;
#X connect 71 0 72 0;
#X connect 72 0 73 1;
#X connect 73 0 74 0;
#X connect 74 0 86 0;
#X connect 75 0 76 0;
#X connect 76 0 77 0;
#X connect 77 0 78 0;
#X connect 78 0 84 0;
#X connect 79 0 80 0;
#X connect 79 0 81 0;
#X connect 80 0 83 0;
#X connect 81 0 82 0;
#X connect 82 0 83 0;
#X connect 83 0 84 1;
#X connect 84 0 85 0;
#X connect 85 0 86 1;
#X connect 86 0 87 0;
#X connect 87 0 88 0;
#X connect 87 0 88 1;
#X connect 92 0 50 0;
#X connect 93 0 95 0;
#X connect 93 0 97 1;
#X connect 94 0 93 0;
#X connect 95 0 96 1;
#X connect 96 0 60 0;
#X connect 97 0 55 0;
#X connect 99 0 51 0;
#X connect 100 0 94 0;
#X connect 101 0 41 0;
#X connect 102 0 104 0;
#X connect 105 0 106 0;
#X connect 105 0 107 0;
#X connect 108 0 109 0;
#X connect 108 0 115 0;
#X connect 110 0 111 0;
#X connect 110 0 118 0;
#X connect 114 0 113 0;
#X connect 116 0 117 0;
#X connect 116 0 119 0;
#X connect 120 0 121 0;
#X connect 121 0 85 1;
#X connect 122 0 123 0;
#X connect 123 0 74 1;
#X connect 124 0 122 0;
#X connect 125 0 120 0;
#X connect 126 0 54 0;
#X connect 127 0 105 0;
#X connect 128 0 108 0;
#X connect 129 0 110 0;
#X connect 130 0 116 0;
