#N canvas 56 -14 1920 989 12;
#X obj 25 22 tgl 20 0 empty empty Start/Stop\ DSP 26 10 0 12 #fcfcfc #000000 #000000 0 1;
#X msg 25 54 \; pd dsp \$1;
#X obj 19 147 hsl 180 18 0 1 0 0 empty empty Pulse1_Gain -2 -8 0 10 #fcfcfc #000000 #000000 0 1;
#X floatatom 273 178 5 0 1 0 - - - 0;
#X obj 314 176 s pulse1_gain;
#X obj 28 183 hsl 180 18 0 1 0 0 empty empty Pulse2_Gain -2 -8 0 10 #fcfcfc #000000 #000000 0 1;
#X floatatom 272 207 5 0 1 0 - - - 0;
#X obj 314 202 s pulse2_gain;
#X obj 39 218 hsl 180 18 0 5 0 0 empty empty Triangle_Gain -2 -8 0 10 #fcfcfc #000000 #000000 0 1;
#X floatatom 272 231 5 0 1 0 - - - 0;
#X obj 314 227 s triangle_gain;
#X obj 55 250 hsl 180 18 0 1 0 0 empty empty Noise_Gain -2 -8 0 10 #fcfcfc #000000 #000000 0 1;
#X floatatom 271 256 5 0 1 0 - - - 0;
#X obj 313 252 s noise_gain;
#X obj 75 287 hsl 180 18 0 1 0 0 empty empty Master_Gain -2 -8 0 10 #fcfcfc #000000 #000000 0 1;
#X floatatom 271 281 5 0 1 0 - - - 0;
#X obj 313 279 s master_gain;
#X text 22 347 Manual test controls if Unity is closed:;
#X obj 22 375 bng 18 250 50 0 empty empty Pickup 24 9 0 10 #fcfcfc #000000 #000000;
#X obj 22 405 random 8;
#X obj 22 435 s osctrig;
#X obj 117 375 bng 18 250 50 0 empty empty Wall 24 9 0 10 #fcfcfc #000000 #000000;
#X msg 117 405 1;
#X obj 117 436 s oscwall;
#X obj 211 375 tgl 18 0 empty empty Seq 24 9 0 10 #fcfcfc #000000 #000000 0 1;
#X obj 211 405 s oscplayseq;
#X floatatom 316 371 5 120 1200 0 Tempo_ms - - 0;
#X obj 305 405 s osctempo;
#X obj 22 477 loadbang;
#X msg 22 535 0.75;
#X msg 77 534 0.55;
#X msg 134 533 0.6;
#X msg 188 532 0.35;
#X msg 249 533 0.85;
#X msg 306 531 420;
#X obj 510 125 catch~ mix;
#X obj 510 155 hip~ 5;
#X obj 510 185 *~;
#X obj 510 215 clip~ -0.95 0.95;
#X obj 510 245 dac~;
#X obj 621 124 r master_gain;
#X obj 621 157 pack f 20;
#X obj 621 185 line~;
#N canvas 711 293 520 275 oscReceive 0;
#X obj 34 31 netreceive -u -b;
#X obj 34 65 oscparse;
#X obj 34 95 list trim;
#X obj 34 125 route unity;
#X obj 34 155 route trigger tempo playseq colwall;
#X obj 34 194 s osctrig;
#X obj 148 194 s osctempo;
#X obj 261 194 s oscplayseq;
#X obj 383 194 s oscwall;
#X obj 217 31 loadbang;
#X msg 217 61 listen 8000;
#X msg 312 61 listen 0;
#X connect 0 0 1 0;
#X connect 1 0 2 0;
#X connect 2 0 3 0;
#X connect 3 0 4 0;
#X connect 4 0 5 0;
#X connect 4 1 6 0;
#X connect 4 2 7 0;
#X connect 4 3 8 0;
#X connect 9 0 10 0;
#X connect 10 0 0 0;
#X restore 771 111 pd oscReceive;
#N canvas 2006 423 690 384 pulse1_voice 1;
#X obj 35 33 r osctrig;
#X obj 35 63 mod 8;
#X obj 35 95 sel 0 1 2 3 4 5 6 7;
#X msg 35 127 72;
#X msg 78 127 76;
#X msg 121 127 79;
#X msg 164 127 83;
#X msg 207 127 84;
#X msg 250 127 79;
#X msg 293 127 76;
#X msg 336 127 74;
#X obj 163 191 mtof;
#X obj 163 220 phasor~;
#X obj 163 249 expr~ (($v1 < 0.25) * 2) - 1;
#X obj 346 250 vline~;
#X obj 163 279 *~;
#X obj 534 191 r pulse1_gain;
#X obj 534 220 pack f 20;
#X obj 534 249 line~;
#X obj 163 309 *~;
#X obj 163 340 throw~ mix;
#X msg 346 220 1 5 \, 0.75 60 5 \, 0 140 65;
#X connect 0 0 1 0;
#X connect 0 0 21 0;
#X connect 1 0 2 0;
#X connect 2 0 3 0;
#X connect 2 1 4 0;
#X connect 2 2 5 0;
#X connect 2 3 6 0;
#X connect 2 4 7 0;
#X connect 2 5 8 0;
#X connect 2 6 9 0;
#X connect 2 7 10 0;
#X connect 3 0 11 0;
#X connect 4 0 11 0;
#X connect 5 0 11 0;
#X connect 6 0 11 0;
#X connect 7 0 11 0;
#X connect 8 0 11 0;
#X connect 9 0 11 0;
#X connect 10 0 11 0;
#X connect 11 0 12 0;
#X connect 12 0 13 0;
#X connect 13 0 15 0;
#X connect 14 0 15 1;
#X connect 15 0 19 0;
#X connect 16 0 17 0;
#X connect 17 0 18 0;
#X connect 18 0 19 1;
#X connect 19 0 20 0;
#X connect 21 0 14 0;
#X restore 771 147 pd pulse1_voice;
#N canvas 650 309 734 416 pulse2_seq 0;
#X obj 37 34 r oscplayseq;
#X obj 37 68 metro 420;
#X obj 37 102 f -1;
#X obj 37 136 + 1;
#X obj 37 170 mod 8;
#X obj 37 204 sel 0 1 2 3 4 5 6 7;
#X msg 37 238 67;
#X msg 80 238 71;
#X msg 123 238 74;
#X msg 166 238 79;
#X msg 209 238 74;
#X msg 252 238 71;
#X msg 295 238 69;
#X msg 338 238 62;
#X obj 164 302 mtof;
#X obj 164 331 phasor~;
#X obj 164 360 expr~ (($v1 < 0.5) * 2) - 1;
#X obj 421 331 vline~;
#X obj 164 390 *~;
#X obj 520 302 r pulse2_gain;
#X obj 520 331 pack f 20;
#X obj 520 360 line~;
#X obj 164 420 *~;
#X obj 164 451 throw~ mix;
#X msg 421 301 1 4 \, 0.55 70 4 \, 0 120 74;
#X obj 174 34 r osctempo;
#X obj 172 72 tgl 19 0 empty empty empty 0 -10 0 12 #fcfcfc #000000 #000000 0 1;
#X connect 0 0 1 0;
#X connect 1 0 2 0;
#X connect 1 0 24 0;
#X connect 2 0 3 0;
#X connect 3 0 2 1;
#X connect 3 0 4 0;
#X connect 4 0 5 0;
#X connect 5 0 6 0;
#X connect 5 1 7 0;
#X connect 5 2 8 0;
#X connect 5 3 9 0;
#X connect 5 4 10 0;
#X connect 5 5 11 0;
#X connect 5 6 12 0;
#X connect 5 7 13 0;
#X connect 6 0 14 0;
#X connect 7 0 14 0;
#X connect 8 0 14 0;
#X connect 9 0 14 0;
#X connect 10 0 14 0;
#X connect 11 0 14 0;
#X connect 12 0 14 0;
#X connect 13 0 14 0;
#X connect 14 0 15 0;
#X connect 15 0 16 0;
#X connect 16 0 18 0;
#X connect 17 0 18 1;
#X connect 18 0 22 0;
#X connect 19 0 20 0;
#X connect 20 0 21 0;
#X connect 21 0 22 1;
#X connect 22 0 23 0;
#X connect 24 0 17 0;
#X connect 25 0 1 1;
#X connect 26 0 1 0;
#X restore 771 183 pd pulse2_seq;
#N canvas 541 291 720 404 triangle_seq 0;
#X obj 37 34 r oscplayseq;
#X obj 37 68 metro 840;
#X obj 37 102 f -1;
#X obj 37 136 + 1;
#X obj 37 170 mod 4;
#X obj 37 204 sel 0 1 2 3;
#X msg 37 238 36;
#X msg 80 238 36;
#X msg 123 238 43;
#X msg 166 238 31;
#X obj 122 302 mtof;
#X obj 122 331 phasor~;
#X obj 122 360 expr~ 1 - (4 * abs($v1 - 0.5));
#X obj 379 331 vline~;
#X obj 122 390 *~;
#X obj 473 302 r triangle_gain;
#X obj 473 331 pack f 20;
#X obj 473 360 line~;
#X obj 122 420 *~;
#X obj 122 451 throw~ mix;
#X msg 379 301 1 12 \, 0.8 180 12 \, 0 260 192;
#X obj 175 34 r osctempo;
#X obj 175 65 * 2;
#X obj 173 98 tgl 19 0 empty empty empty 0 -10 0 12 #fcfcfc #000000 #000000 0 1;
#X connect 0 0 1 0;
#X connect 1 0 2 0;
#X connect 1 0 20 0;
#X connect 2 0 3 0;
#X connect 3 0 2 1;
#X connect 3 0 4 0;
#X connect 4 0 5 0;
#X connect 5 0 6 0;
#X connect 5 1 7 0;
#X connect 5 2 8 0;
#X connect 5 3 9 0;
#X connect 6 0 10 0;
#X connect 7 0 10 0;
#X connect 8 0 10 0;
#X connect 9 0 10 0;
#X connect 10 0 11 0;
#X connect 11 0 12 0;
#X connect 12 0 14 0;
#X connect 13 0 14 1;
#X connect 14 0 18 0;
#X connect 15 0 16 0;
#X connect 16 0 17 0;
#X connect 17 0 18 1;
#X connect 18 0 19 0;
#X connect 20 0 13 0;
#X connect 21 0 22 0;
#X connect 22 0 1 1;
#X connect 23 0 1 0;
#X restore 771 219 pd triangle_seq;
#N canvas 619 250 563 318 noise_voice 0;
#X obj 35 34 r oscwall;
#X obj 35 68 sel 1;
#X obj 174 72 noise~;
#X obj 174 105 hip~ 1200;
#X obj 174 138 lop~ 5000;
#X obj 334 106 vline~;
#X obj 174 171 *~;
#X obj 422 72 r noise_gain;
#X obj 422 101 pack f 20;
#X obj 422 130 line~;
#X obj 174 204 *~;
#X obj 174 237 throw~ mix;
#X msg 334 76 1 2 \, 0.45 35 2 \, 0 140 37;
#X connect 0 0 1 0;
#X connect 1 0 12 0;
#X connect 2 0 3 0;
#X connect 3 0 4 0;
#X connect 4 0 6 0;
#X connect 5 0 6 1;
#X connect 6 0 10 0;
#X connect 7 0 8 0;
#X connect 8 0 9 0;
#X connect 9 0 10 1;
#X connect 10 0 11 0;
#X connect 12 0 5 0;
#X restore 771 255 pd noise_voice;
#X text 445 38 Pulse 1 = pickup melody \, Pulse 2 = lead sequence \, Triangle = bass sequence \, Noise = wall hit burst.;
#X text 20 112 Voice gain controls (0.0 to 1 (or 5 for triangle_gain):;
#N canvas 812 219 988 711 death_voice 1;
#X obj 40 22 r deathtrig;
#X obj 40 59 t b b b;
#X obj 259 112 delay 700;
#X obj 259 148 t b b;
#X obj 358 172 max 0;
#X msg 259 182 1;
#X obj 264 293 t f f f;
#X obj 264 341 sel 0;
#X msg 264 377 0;
#X obj 382 339 - 1;
#X obj 320 411 mtof;
#X obj 320 443 sig~;
#X obj 319 478 osc~;
#X obj 318 515 *~;
#X obj 383 477 vline~;
#X obj 318 554 throw~ mix;
#X msg 384 441 0 \, 0.25 5 \, 0 60 5;
#X msg 40 112 0.5 \, 0 800;
#X msg 144 112 1600 \, 40 800;
#X obj 40 150 vline~;
#X obj 144 150 line~;
#X obj 182 185 osc~ 10;
#X obj 182 224 *~ 40;
#X obj 144 261 +~;
#X obj 143 345 osc~;
#X obj 184 287 noise~;
#X obj 184 320 *~ 0.05;
#X obj 144 381 +~;
#X obj 143 420 *~;
#X obj 142 463 throw~ mix;
#X obj 299 255 f;
#X obj 358 111 r coincount;
#X obj 340 216 f;
#X text 371 216 Coin storage;
#X obj 320 377 + 70;
#X obj 320 340 * 3;
#X obj 259 217 metro 70;
#X connect 0 0 1 0;
#X connect 1 0 17 0;
#X connect 1 1 18 0;
#X connect 1 2 2 0;
#X connect 2 0 3 0;
#X connect 3 0 5 0;
#X connect 3 1 32 0;
#X connect 4 0 32 1;
#X connect 5 0 36 0;
#X connect 6 0 7 0;
#X connect 6 0 16 0;
#X connect 6 1 35 0;
#X connect 6 2 9 0;
#X connect 7 0 8 0;
#X connect 8 0 36 0;
#X connect 9 0 30 1;
#X connect 10 0 11 0;
#X connect 11 0 12 0;
#X connect 12 0 13 0;
#X connect 13 0 15 0;
#X connect 14 0 13 1;
#X connect 16 0 14 0;
#X connect 17 0 19 0;
#X connect 18 0 20 0;
#X connect 19 0 28 1;
#X connect 20 0 23 0;
#X connect 21 0 22 0;
#X connect 22 0 23 1;
#X connect 23 0 24 0;
#X connect 24 0 27 0;
#X connect 25 0 26 0;
#X connect 26 0 27 1;
#X connect 27 0 28 0;
#X connect 28 0 29 0;
#X connect 30 0 6 0;
#X connect 31 0 4 0;
#X connect 32 0 30 1;
#X connect 34 0 10 0;
#X connect 35 0 34 0;
#X connect 36 0 30 0;
#X restore 664 415 pd death_voice;
#X obj 548 440 bng 18 250 50 0 empty empty Death 24 9 0 10 #fcfcfc #000000 #000000;
#X obj 548 479 s deathtrig;
#X obj 662 511 s coincount;
#X obj 662 479 random 10;
#X obj 555 642 bng 18 250 50 0 empty empty Jump 24 9 0 10 #fcfcfc #000000 #000000;
#X obj 555 681 s jumptrig;
#N canvas 797 142 988 711 jump_voice 1;
#X obj 40 22 r jumptrig;
#X obj 40 529 vline~;
#X obj 82 314 line~;
#X obj 81 350 +~;
#X obj 202 276 osc~ 12;
#X obj 201 314 *~ 15;
#X msg 40 488 0 \, 0.35 8 \, 0 120 8;
#X obj 81 397 osc~;
#X obj 81 442 +~;
#X obj 178 366 noise~;
#X obj 178 401 *~ 0.01;
#X obj 81 580 *~;
#X obj 80 614 throw~ mix;
#X obj 82 224 pack f f;
#X msg 82 262 \$1 \, \$2 110;
#X obj 40 66 t b b;
#X obj 82 158 t f f;
#X obj 132 185 + 1000;
#X obj 82 185 + 500;
#X obj 82 99 random 201;
#X obj 82 129 - 100;
#X connect 0 0 15 0;
#X connect 1 0 11 1;
#X connect 2 0 3 0;
#X connect 3 0 7 0;
#X connect 4 0 5 0;
#X connect 5 0 3 1;
#X connect 6 0 1 0;
#X connect 7 0 8 0;
#X connect 8 0 11 0;
#X connect 9 0 10 0;
#X connect 10 0 8 1;
#X connect 11 0 12 0;
#X connect 13 0 14 0;
#X connect 14 0 2 0;
#X connect 15 0 6 0;
#X connect 15 1 19 0;
#X connect 16 0 18 0;
#X connect 16 1 17 0;
#X connect 17 0 13 1;
#X connect 18 0 13 0;
#X connect 19 0 20 0;
#X connect 20 0 16 0;
#X restore 665 642 pd jump_voice;
#X connect 0 0 1 0;
#X connect 2 0 3 0;
#X connect 2 0 4 0;
#X connect 5 0 6 0;
#X connect 5 0 7 0;
#X connect 8 0 9 0;
#X connect 8 0 10 0;
#X connect 11 0 12 0;
#X connect 11 0 13 0;
#X connect 14 0 15 0;
#X connect 14 0 16 0;
#X connect 18 0 19 0;
#X connect 19 0 20 0;
#X connect 21 0 22 0;
#X connect 22 0 23 0;
#X connect 24 0 25 0;
#X connect 26 0 27 0;
#X connect 28 0 29 0;
#X connect 28 0 30 0;
#X connect 28 0 31 0;
#X connect 28 0 32 0;
#X connect 28 0 33 0;
#X connect 28 0 34 0;
#X connect 29 0 2 0;
#X connect 30 0 5 0;
#X connect 31 0 8 0;
#X connect 32 0 11 0;
#X connect 33 0 14 0;
#X connect 34 0 26 0;
#X connect 35 0 36 0;
#X connect 36 0 37 0;
#X connect 37 0 38 0;
#X connect 38 0 39 0;
#X connect 38 0 39 1;
#X connect 40 0 41 0;
#X connect 41 0 42 0;
#X connect 42 0 37 1;
#X connect 51 0 52 0;
#X connect 51 0 54 0;
#X connect 54 0 53 0;
#X connect 55 0 56 0;
