#N canvas 1365 -16 1920 989 12;
#X obj 25 22 tgl 20 0 empty empty Start/Stop\ DSP 26 10 0 12 #fcfcfc #000000 #000000 0 1;
#X msg 25 54 \; pd dsp \$1;
#X obj 19 147 hsl 180 18 0 1 0 0 empty empty Death_Vol -2 -8 0 10 #fcfcfc #000000 #000000 0 1;
#X floatatom 273 178 5 0 1 0 - - - 0;
#X obj 28 183 hsl 180 18 0 1 0 0 empty empty Jump_Vol -2 -8 0 10 #fcfcfc #000000 #000000 0 1;
#X floatatom 272 207 5 0 1 0 - - - 0;
#X obj 39 218 hsl 180 18 0 5 0 0 empty empty Step_Vol -2 -8 0 10 #fcfcfc #000000 #000000 0 1;
#X floatatom 272 231 5 0 1 0 - - - 0;
#X obj 75 287 hsl 180 18 0 1 0 0 empty empty Master_Vol -2 -8 0 10 #fcfcfc #000000 #000000 0 1;
#X floatatom 271 281 5 0 1 0 - - - 0;
#X obj 313 279 s master_gain;
#X text 447 321 Manual test controls if Unity is closed:;
#X obj 18 345 loadbang;
#X msg 184 400 0.35;
#X obj 510 125 catch~ mix;
#X obj 510 155 hip~ 5;
#X obj 510 185 *~;
#X obj 510 215 clip~ -0.95 0.95;
#X obj 510 245 dac~;
#X obj 621 124 r master_gain;
#X obj 621 157 pack f 20;
#X obj 621 185 line~;
#N canvas 2079 533 520 275 oscReceive 1;
#X obj 34 31 netreceive -u -b;
#X obj 34 65 oscparse;
#X obj 34 95 list trim;
#X obj 34 125 route unity;
#X obj 217 31 loadbang;
#X msg 217 61 listen 8000;
#X msg 312 61 listen 0;
#X obj 34 194 s deathtrig;
#X obj 148 194 s steptrig;
#X obj 261 194 s jumptrig;
#X obj 353 194 s coincount;
#X obj 34 155 route deathtrig steptrig jumptrig coincount cointrig;
#X obj 446 193 s cointrig;
#X connect 0 0 1 0;
#X connect 1 0 2 0;
#X connect 2 0 3 0;
#X connect 3 0 11 0;
#X connect 4 0 5 0;
#X connect 5 0 0 0;
#X connect 11 0 7 0;
#X connect 11 1 8 0;
#X connect 11 2 9 0;
#X connect 11 3 10 0;
#X connect 11 4 12 0;
#X restore 508 59 pd oscReceive;
#N canvas 1070 179 690 384 pulse1_voice 0;
#X obj 35 33 r osctrig;
#X obj 35 63 mod 8;
#X obj 35 95 sel 0 1 2 3 4 5 6 7;
#X msg 35 127 72;
#X msg 78 127 76;
#X msg 121 127 79;
#X msg 164 127 83;
#X msg 207 127 84;
#X msg 250 127 79;
#X msg 293 127 76;
#X msg 336 127 74;
#X obj 163 191 mtof;
#X obj 163 220 phasor~;
#X obj 163 249 expr~ (($v1 < 0.25) * 2) - 1;
#X obj 346 250 vline~;
#X obj 163 279 *~;
#X obj 534 191 r pulse1_gain;
#X obj 534 220 pack f 20;
#X obj 534 249 line~;
#X obj 163 309 *~;
#X obj 163 340 throw~ mix;
#X msg 346 220 1 5 \, 0.75 60 5 \, 0 140 65;
#X connect 0 0 1 0;
#X connect 0 0 21 0;
#X connect 1 0 2 0;
#X connect 2 0 3 0;
#X connect 2 1 4 0;
#X connect 2 2 5 0;
#X connect 2 3 6 0;
#X connect 2 4 7 0;
#X connect 2 5 8 0;
#X connect 2 6 9 0;
#X connect 2 7 10 0;
#X connect 3 0 11 0;
#X connect 4 0 11 0;
#X connect 5 0 11 0;
#X connect 6 0 11 0;
#X connect 7 0 11 0;
#X connect 8 0 11 0;
#X connect 9 0 11 0;
#X connect 10 0 11 0;
#X connect 11 0 12 0;
#X connect 12 0 13 0;
#X connect 13 0 15 0;
#X connect 14 0 15 1;
#X connect 15 0 19 0;
#X connect 16 0 17 0;
#X connect 17 0 18 0;
#X connect 18 0 19 1;
#X connect 19 0 20 0;
#X connect 21 0 14 0;
#X restore 1118 155 pd pulse1_voice;
#N canvas 650 309 734 416 pulse2_seq 0;
#X obj 37 34 r oscplayseq;
#X obj 37 68 metro 420;
#X obj 37 102 f -1;
#X obj 37 136 + 1;
#X obj 37 170 mod 8;
#X obj 37 204 sel 0 1 2 3 4 5 6 7;
#X msg 37 238 67;
#X msg 80 238 71;
#X msg 123 238 74;
#X msg 166 238 79;
#X msg 209 238 74;
#X msg 252 238 71;
#X msg 295 238 69;
#X msg 338 238 62;
#X obj 164 302 mtof;
#X obj 164 331 phasor~;
#X obj 164 360 expr~ (($v1 < 0.5) * 2) - 1;
#X obj 421 331 vline~;
#X obj 164 390 *~;
#X obj 520 302 r pulse2_gain;
#X obj 520 331 pack f 20;
#X obj 520 360 line~;
#X obj 164 420 *~;
#X obj 164 451 throw~ mix;
#X msg 421 301 1 4 \, 0.55 70 4 \, 0 120 74;
#X obj 174 34 r osctempo;
#X obj 172 72 tgl 19 0 empty empty empty 0 -10 0 12 #fcfcfc #000000 #000000 0 1;
#X connect 0 0 1 0;
#X connect 1 0 2 0;
#X connect 1 0 24 0;
#X connect 2 0 3 0;
#X connect 3 0 2 1;
#X connect 3 0 4 0;
#X connect 4 0 5 0;
#X connect 5 0 6 0;
#X connect 5 1 7 0;
#X connect 5 2 8 0;
#X connect 5 3 9 0;
#X connect 5 4 10 0;
#X connect 5 5 11 0;
#X connect 5 6 12 0;
#X connect 5 7 13 0;
#X connect 6 0 14 0;
#X connect 7 0 14 0;
#X connect 8 0 14 0;
#X connect 9 0 14 0;
#X connect 10 0 14 0;
#X connect 11 0 14 0;
#X connect 12 0 14 0;
#X connect 13 0 14 0;
#X connect 14 0 15 0;
#X connect 15 0 16 0;
#X connect 16 0 18 0;
#X connect 17 0 18 1;
#X connect 18 0 22 0;
#X connect 19 0 20 0;
#X connect 20 0 21 0;
#X connect 21 0 22 1;
#X connect 22 0 23 0;
#X connect 24 0 17 0;
#X connect 25 0 1 1;
#X connect 26 0 1 0;
#X restore 1118 191 pd pulse2_seq;
#N canvas 541 291 720 404 triangle_seq 0;
#X obj 37 34 r oscplayseq;
#X obj 37 68 metro 840;
#X obj 37 102 f -1;
#X obj 37 136 + 1;
#X obj 37 170 mod 4;
#X obj 37 204 sel 0 1 2 3;
#X msg 37 238 36;
#X msg 80 238 36;
#X msg 123 238 43;
#X msg 166 238 31;
#X obj 122 302 mtof;
#X obj 122 331 phasor~;
#X obj 122 360 expr~ 1 - (4 * abs($v1 - 0.5));
#X obj 379 331 vline~;
#X obj 122 390 *~;
#X obj 473 302 r triangle_gain;
#X obj 473 331 pack f 20;
#X obj 473 360 line~;
#X obj 122 420 *~;
#X obj 122 451 throw~ mix;
#X msg 379 301 1 12 \, 0.8 180 12 \, 0 260 192;
#X obj 175 34 r osctempo;
#X obj 175 65 * 2;
#X obj 173 98 tgl 19 0 empty empty empty 0 -10 0 12 #fcfcfc #000000 #000000 0 1;
#X connect 0 0 1 0;
#X connect 1 0 2 0;
#X connect 1 0 20 0;
#X connect 2 0 3 0;
#X connect 3 0 2 1;
#X connect 3 0 4 0;
#X connect 4 0 5 0;
#X connect 5 0 6 0;
#X connect 5 1 7 0;
#X connect 5 2 8 0;
#X connect 5 3 9 0;
#X connect 6 0 10 0;
#X connect 7 0 10 0;
#X connect 8 0 10 0;
#X connect 9 0 10 0;
#X connect 10 0 11 0;
#X connect 11 0 12 0;
#X connect 12 0 14 0;
#X connect 13 0 14 1;
#X connect 14 0 18 0;
#X connect 15 0 16 0;
#X connect 16 0 17 0;
#X connect 17 0 18 1;
#X connect 18 0 19 0;
#X connect 20 0 13 0;
#X connect 21 0 22 0;
#X connect 22 0 1 1;
#X connect 23 0 1 0;
#X restore 1118 227 pd triangle_seq;
#N canvas 619 250 563 318 noise_voice 0;
#X obj 35 34 r oscwall;
#X obj 35 68 sel 1;
#X obj 174 72 noise~;
#X obj 174 105 hip~ 1200;
#X obj 174 138 lop~ 5000;
#X obj 334 106 vline~;
#X obj 174 171 *~;
#X obj 422 72 r noise_gain;
#X obj 422 101 pack f 20;
#X obj 422 130 line~;
#X obj 174 204 *~;
#X obj 174 237 throw~ mix;
#X msg 334 76 1 2 \, 0.45 35 2 \, 0 140 37;
#X connect 0 0 1 0;
#X connect 1 0 12 0;
#X connect 2 0 3 0;
#X connect 3 0 4 0;
#X connect 4 0 6 0;
#X connect 5 0 6 1;
#X connect 6 0 10 0;
#X connect 7 0 8 0;
#X connect 8 0 9 0;
#X connect 9 0 10 1;
#X connect 10 0 11 0;
#X connect 12 0 5 0;
#X restore 1118 263 pd noise_voice;
#N canvas 2471 126 988 711 death_voice 0;
#X obj 40 22 r deathtrig;
#X obj 40 59 t b b b;
#X obj 259 112 delay 700;
#X obj 259 148 t b b;
#X obj 358 172 max 0;
#X msg 259 182 1;
#X obj 264 293 t f f f;
#X obj 264 341 sel 0;
#X msg 264 377 0;
#X obj 382 339 - 1;
#X obj 320 411 mtof;
#X obj 320 443 sig~;
#X obj 319 478 osc~;
#X obj 318 515 *~;
#X obj 383 477 vline~;
#X obj 319 594 throw~ mix;
#X msg 384 441 0 \, 0.25 5 \, 0 60 5;
#X msg 40 112 0.5 \, 0 800;
#X msg 144 112 1600 \, 40 800;
#X obj 40 150 vline~;
#X obj 144 150 line~;
#X obj 182 185 osc~ 10;
#X obj 182 224 *~ 40;
#X obj 144 261 +~;
#X obj 143 345 osc~;
#X obj 184 287 noise~;
#X obj 184 320 *~ 0.05;
#X obj 144 381 +~;
#X obj 143 420 *~;
#X obj 143 500 throw~ mix;
#X obj 299 255 f;
#X obj 358 111 r coincount;
#X obj 340 216 f;
#X text 371 216 Coin storage;
#X obj 320 377 + 70;
#X obj 320 340 * 3;
#X obj 259 217 metro 70;
#X obj 318 554 *~;
#X obj 543 471 pack f 20;
#X obj 543 500 line~;
#X obj 543 442 r death_vol;
#X obj 143 462 *~;
#X connect 0 0 1 0;
#X connect 1 0 17 0;
#X connect 1 1 18 0;
#X connect 1 2 2 0;
#X connect 2 0 3 0;
#X connect 3 0 5 0;
#X connect 3 1 32 0;
#X connect 4 0 32 1;
#X connect 5 0 36 0;
#X connect 6 0 7 0;
#X connect 6 0 16 0;
#X connect 6 1 35 0;
#X connect 6 2 9 0;
#X connect 7 0 8 0;
#X connect 8 0 36 0;
#X connect 9 0 30 1;
#X connect 10 0 11 0;
#X connect 11 0 12 0;
#X connect 12 0 13 0;
#X connect 13 0 37 0;
#X connect 14 0 13 1;
#X connect 16 0 14 0;
#X connect 17 0 19 0;
#X connect 18 0 20 0;
#X connect 19 0 28 1;
#X connect 20 0 23 0;
#X connect 21 0 22 0;
#X connect 22 0 23 1;
#X connect 23 0 24 0;
#X connect 24 0 27 0;
#X connect 25 0 26 0;
#X connect 26 0 27 1;
#X connect 27 0 28 0;
#X connect 28 0 41 0;
#X connect 30 0 6 0;
#X connect 31 0 4 0;
#X connect 32 0 30 1;
#X connect 34 0 10 0;
#X connect 35 0 34 0;
#X connect 36 0 30 0;
#X connect 37 0 15 0;
#X connect 38 0 39 0;
#X connect 39 0 37 1;
#X connect 39 0 41 1;
#X connect 40 0 38 0;
#X connect 41 0 29 0;
#X restore 561 362 pd death_voice;
#X obj 446 360 bng 18 250 50 0 empty empty Death 24 9 0 10 #fcfcfc #000000 #000000;
#X obj 446 399 s deathtrig;
#X obj 560 431 s coincount;
#X obj 560 399 random 10;
#X obj 447 491 bng 18 250 50 0 empty empty Jump 24 9 0 10 #fcfcfc #000000 #000000;
#X obj 447 530 s jumptrig;
#N canvas 797 142 988 711 jump_voice 1;
#X obj 40 22 r jumptrig;
#X obj 40 529 vline~;
#X obj 82 314 line~;
#X obj 81 350 +~;
#X obj 202 276 osc~ 12;
#X obj 201 314 *~ 15;
#X msg 40 488 0 \, 0.35 8 \, 0 120 8;
#X obj 81 397 osc~;
#X obj 81 442 +~;
#X obj 178 366 noise~;
#X obj 178 401 *~ 0.01;
#X obj 81 580 *~;
#X obj 82 649 throw~ mix;
#X obj 82 224 pack f f;
#X msg 82 262 \$1 \, \$2 110;
#X obj 40 66 t b b;
#X obj 82 158 t f f;
#X obj 132 185 + 1000;
#X obj 82 185 + 500;
#X obj 82 99 random 201;
#X obj 82 129 - 100;
#X obj 81 618 *~;
#X obj 203 518 pack f 20;
#X obj 203 547 line~;
#X obj 203 489 r jump_vol;
#X connect 0 0 15 0;
#X connect 1 0 11 1;
#X connect 2 0 3 0;
#X connect 3 0 7 0;
#X connect 4 0 5 0;
#X connect 5 0 3 1;
#X connect 6 0 1 0;
#X connect 7 0 8 0;
#X connect 8 0 11 0;
#X connect 9 0 10 0;
#X connect 10 0 8 1;
#X connect 11 0 21 0;
#X connect 13 0 14 0;
#X connect 14 0 2 0;
#X connect 15 0 6 0;
#X connect 15 1 19 0;
#X connect 16 0 18 0;
#X connect 16 1 17 0;
#X connect 17 0 13 1;
#X connect 18 0 13 0;
#X connect 19 0 20 0;
#X connect 20 0 16 0;
#X connect 21 0 12 0;
#X connect 22 0 23 0;
#X connect 23 0 21 1;
#X connect 24 0 22 0;
#X restore 542 490 pd jump_voice;
#X obj 719 360 bng 18 250 50 0 empty empty Step 24 9 0 10 #fcfcfc #000000 #000000;
#N canvas 797 142 988 711 step_voice 0;
#X obj 40 66 t b b;
#X obj 40 22 r steptrig;
#X obj 82 253 vline~;
#X obj 65 334 *~;
#X obj 15 221 noise~;
#X obj 14 253 hip~ 250;
#X obj 15 289 lop~ 1200;
#X obj 289 139 vline~;
#X obj 240 222 *~;
#X obj 133 380 +~;
#X obj 134 466 throw~ mix;
#X obj 133 424 *~;
#X msg 82 221 0 \, 0.15 2 \, 0 45 2;
#X msg 289 106 0 \, 0.06 2 \, 0 35 2;
#X obj 203 172 osc~;
#X obj 203 139 + 100;
#X obj 203 106 random 500;
#X obj 226 345 pack f 20;
#X obj 226 374 line~;
#X obj 226 316 r step_vol;
#X connect 0 0 12 0;
#X connect 0 1 13 0;
#X connect 0 1 16 0;
#X connect 1 0 0 0;
#X connect 2 0 3 1;
#X connect 3 0 9 0;
#X connect 4 0 5 0;
#X connect 5 0 6 0;
#X connect 6 0 3 0;
#X connect 7 0 8 1;
#X connect 8 0 9 1;
#X connect 9 0 11 0;
#X connect 11 0 10 0;
#X connect 12 0 2 0;
#X connect 13 0 7 0;
#X connect 14 0 8 0;
#X connect 15 0 14 0;
#X connect 16 0 15 0;
#X connect 17 0 18 0;
#X connect 18 0 11 1;
#X connect 19 0 17 0;
#X restore 811 359 pd step_voice;
#X obj 719 399 s steptrig;
#X text 20 112 Voice gain controls:;
#X obj 314 176 s death_vol;
#X msg 18 403 0.85;
#X text 1115 128 Old testing sounds;
#X obj 314 202 s jump_vol;
#X msg 73 402 0.8;
#X obj 314 227 s step_vol;
#X msg 130 401 1.5;
#X msg 286 400 0.5;
#X obj 717 492 bng 18 250 50 0 empty empty Coin\ Pickup 24 9 0 10 #fcfcfc #000000 #000000;
#X obj 831 563 s coincount;
#X obj 831 531 random 10;
#X obj 58 250 hsl 180 18 0 1 0 0 empty empty Coin_Vol -2 -8 0 10 #fcfcfc #000000 #000000 0 1;
#X floatatom 271 256 5 0 1 0 - - - 0;
#X obj 315 255 s coin_vol;
#X msg 235 400 0.75;
#X obj 717 531 s cointrig;
#N canvas 353 175 988 711 coin_voice 1;
#X text 347 124 This is just the jump sound. Ill make the coin sound soon., f 30;
#X obj 39 525 vline~;
#X obj 81 310 line~;
#X obj 80 346 +~;
#X obj 201 272 osc~ 12;
#X obj 200 310 *~ 15;
#X msg 39 484 0 \, 0.35 8 \, 0 120 8;
#X obj 80 393 osc~;
#X obj 80 438 +~;
#X obj 177 362 noise~;
#X obj 177 397 *~ 0.01;
#X obj 80 576 *~;
#X obj 81 645 throw~ mix;
#X obj 81 220 pack f f;
#X msg 81 258 \$1 \, \$2 110;
#X obj 39 62 t b b;
#X obj 81 154 t f f;
#X obj 131 181 + 1000;
#X obj 81 181 + 500;
#X obj 81 95 random 201;
#X obj 81 125 - 100;
#X obj 80 614 *~;
#X obj 202 514 pack f 20;
#X obj 202 543 line~;
#X obj 39 18 r cointrig;
#X obj 202 485 r coin_vol;
#X connect 1 0 11 1;
#X connect 2 0 3 0;
#X connect 3 0 7 0;
#X connect 4 0 5 0;
#X connect 5 0 3 1;
#X connect 6 0 1 0;
#X connect 7 0 8 0;
#X connect 8 0 11 0;
#X connect 9 0 10 0;
#X connect 10 0 8 1;
#X connect 11 0 21 0;
#X connect 13 0 14 0;
#X connect 14 0 2 0;
#X connect 15 0 6 0;
#X connect 15 1 19 0;
#X connect 16 0 18 0;
#X connect 16 1 17 0;
#X connect 17 0 13 1;
#X connect 18 0 13 0;
#X connect 19 0 20 0;
#X connect 20 0 16 0;
#X connect 21 0 12 0;
#X connect 22 0 23 0;
#X connect 23 0 21 1;
#X connect 24 0 15 0;
#X connect 25 0 22 0;
#X restore 832 494 pd coin_voice;
#X connect 0 0 1 0;
#X connect 2 0 3 0;
#X connect 2 0 39 0;
#X connect 4 0 5 0;
#X connect 4 0 42 0;
#X connect 6 0 7 0;
#X connect 6 0 44 0;
#X connect 8 0 9 0;
#X connect 8 0 10 0;
#X connect 12 0 40 0;
#X connect 12 0 43 0;
#X connect 12 0 45 0;
#X connect 12 0 13 0;
#X connect 12 0 46 0;
#X connect 14 0 15 0;
#X connect 15 0 16 0;
#X connect 16 0 17 0;
#X connect 17 0 18 0;
#X connect 17 0 18 1;
#X connect 19 0 20 0;
#X connect 20 0 21 0;
#X connect 21 0 16 1;
#X connect 28 0 29 0;
#X connect 28 0 31 0;
#X connect 31 0 30 0;
#X connect 32 0 33 0;
#X connect 35 0 37 0;
#X connect 40 0 2 0;
#X connect 43 0 4 0;
#X connect 45 0 6 0;
#X connect 46 0 8 0;
#X connect 47 0 49 0;
#X connect 47 0 54 0;
#X connect 49 0 48 0;
#X connect 50 0 51 0;
#X connect 50 0 52 0;
#X connect 53 0 50 0;
